<?xml version="1.0" encoding="utf-8"?>
<!-- Generator: Adobe Illustrator 16.0.0, SVG Export Plug-In . SVG Version: 6.00 Build 0)  -->
<!DOCTYPE svg PUBLIC "-//W3C//DTD SVG 1.1//EN" "http://www.w3.org/Graphics/SVG/1.1/DTD/svg11.dtd">
<svg version="1.1" id="Layer_1" xmlns="http://www.w3.org/2000/svg" xmlns:xlink="http://www.w3.org/1999/xlink" x="0px" y="0px"
	 width="32px" height="32px" viewBox="0 0 32 32" enable-background="new 0 0 32 32" xml:space="preserve">
<line fill="none" stroke="#000000" stroke-linecap="round" stroke-miterlimit="10" x1="31.025" y1="0.728" x2="1.049" y2="15.09"/>
<line fill="none" stroke="#000000" stroke-linecap="round" stroke-miterlimit="10" x1="0.974" y1="15.33" x2="31.142" y2="31.17"/>
<g>
	<g>
		<path d="M0.75,15.167c0.035-0.047,0.07-0.095,0.105-0.142c0.146-0.068,0.019-0.284-0.126-0.216
			c-0.171,0.08-0.205,0.177-0.229,0.358C0.479,15.326,0.729,15.324,0.75,15.167L0.75,15.167z"/>
	</g>
</g>
<g>
	<g>
		<path d="M0.745,14.703c-0.215,0.253-0.299,0.669-0.021,0.906c0.122,0.104,0.299-0.072,0.177-0.177
			c-0.132-0.201-0.125-0.385,0.021-0.553C1.026,14.758,0.85,14.58,0.745,14.703L0.745,14.703z"/>
	</g>
</g>
<g>
	<g>
		<path d="M0.829,15.321c-0.014-0.056-0.028-0.111-0.042-0.167c-0.039-0.156-0.28-0.09-0.241,0.066
			c0.014,0.056,0.028,0.111,0.042,0.167C0.627,15.543,0.868,15.477,0.829,15.321L0.829,15.321z"/>
	</g>
</g>
<g>
	<g>
		<path d="M0.767,15.3c-0.007-0.049-0.014-0.097-0.021-0.146c-0.023-0.159-0.264-0.091-0.241,0.066
			c0.007,0.049,0.014,0.097,0.021,0.146C0.548,15.526,0.789,15.458,0.767,15.3L0.767,15.3z"/>
	</g>
</g>
<g>
	<g>
		<path d="M0.704,15.279C0.768,15.186,0.832,15.093,0.896,15c0.159-0.016,0.161-0.266,0-0.25c-0.334,0.033-0.477,0.274-0.433,0.596
			C0.484,15.505,0.726,15.437,0.704,15.279L0.704,15.279z"/>
	</g>
</g>
<g>
	<g>
		<path d="M1.092,14.546C0.67,14.655,0.479,14.871,0.5,15.312c0.008,0.161,0.258,0.161,0.25,0c-0.015-0.319,0.127-0.453,0.408-0.525
			C1.314,14.747,1.248,14.505,1.092,14.546L1.092,14.546z"/>
	</g>
</g>
<g>
	<g>
		<path d="M1.213,15.151c0.324-0.347,0.755-0.508,1.224-0.526c0.161-0.006,0.161-0.256,0-0.25c-0.533,0.021-1.033,0.205-1.401,0.599
			C0.927,15.092,1.103,15.269,1.213,15.151L1.213,15.151z"/>
	</g>
</g>
<g>
	<g>
		<path d="M1.092,15.558c0.312,0.125,0.625,0.25,0.938,0.375c0.15,0.06,0.214-0.182,0.066-0.241
			c-0.312-0.125-0.625-0.25-0.938-0.375C1.008,15.257,0.944,15.499,1.092,15.558L1.092,15.558z"/>
	</g>
</g>
</svg>
