<?xml version="1.0" encoding="utf-8"?>
<!-- Generator: Adobe Illustrator 16.0.0, SVG Export Plug-In . SVG Version: 6.00 Build 0)  -->
<!DOCTYPE svg PUBLIC "-//W3C//DTD SVG 1.1//EN" "http://www.w3.org/Graphics/SVG/1.1/DTD/svg11.dtd">
<svg version="1.1" id="Layer_1" xmlns="http://www.w3.org/2000/svg" xmlns:xlink="http://www.w3.org/1999/xlink" x="0px" y="0px"
	 width="16px" height="16px" viewBox="0 0 16 16" enable-background="new 0 0 16 16" xml:space="preserve">
<line fill="none" stroke="#000000" stroke-linecap="square" stroke-miterlimit="10" x1="1.979" y1="2.678" x2="13.496" y2="2.678"/>
<line fill="none" stroke="#000000" stroke-linecap="square" stroke-miterlimit="10" x1="1.979" y1="4.962" x2="13.496" y2="4.962"/>
<line fill="none" stroke="#000000" stroke-linecap="square" stroke-miterlimit="10" x1="1.979" y1="7.318" x2="9.861" y2="7.318"/>
<line fill="none" stroke="#000000" stroke-linecap="square" stroke-miterlimit="10" x1="1.979" y1="9.701" x2="8.163" y2="9.701"/>
<line fill="none" stroke="#000000" stroke-linecap="square" stroke-miterlimit="10" x1="1.979" y1="12.08" x2="9.861" y2="12.08"/>
<g>
	<path fill="#FFFFFF" d="M14.479,9.701c0,1.684-1.225,3.047-2.734,3.047s-2.732-1.363-2.732-3.047c0-1.686,1.223-3.051,2.732-3.051
		S14.479,8.016,14.479,9.701z"/>
	<path fill="none" stroke="#FFFFFF" stroke-width="0.8" stroke-miterlimit="10" d="M11.744,13.248c-1.782,0-3.232-1.591-3.232-3.547
		c0-1.958,1.45-3.551,3.232-3.551c1.783,0,3.234,1.593,3.234,3.551C14.979,11.657,13.527,13.248,11.744,13.248z"/>
	<path fill="none" stroke="#000000" stroke-linecap="square" stroke-miterlimit="10" d="M14.479,9.701
		c0,1.684-1.225,3.047-2.734,3.047s-2.732-1.363-2.732-3.047c0-1.686,1.223-3.051,2.732-3.051S14.479,8.016,14.479,9.701z"/>
</g>
<line fill="none" stroke="#000000" stroke-width="1.25" stroke-linecap="round" stroke-miterlimit="10" x1="13.841" y1="12.228" x2="14.907" y2="13.269"/>
</svg>
