<?xml version="1.0" encoding="utf-8"?>
<!-- Generator: Adobe Illustrator 16.0.0, SVG Export Plug-In . SVG Version: 6.00 Build 0)  -->
<!DOCTYPE svg PUBLIC "-//W3C//DTD SVG 1.1//EN" "http://www.w3.org/Graphics/SVG/1.1/DTD/svg11.dtd">
<svg version="1.1" id="Layer_1" xmlns="http://www.w3.org/2000/svg" xmlns:xlink="http://www.w3.org/1999/xlink" x="0px" y="0px"
	 width="32px" height="32px" viewBox="0 0 32 32" enable-background="new 0 0 32 32" xml:space="preserve">
<line fill="none" stroke="#000000" stroke-linecap="round" stroke-miterlimit="10" x1="0.945" y1="31.046" x2="31.038" y2="16.629"/>
<line fill="none" stroke="#000000" stroke-linecap="round" stroke-miterlimit="10" x1="31.074" y1="16.444" x2="1.098" y2="1.075"/>
<g>
	<g>
		<path d="M30.961,16.732c-0.035,0.047-0.07,0.095-0.105,0.142c-0.146,0.068-0.019,0.284,0.127,0.216
			c0.171-0.08,0.204-0.177,0.229-0.358C31.232,16.573,30.982,16.575,30.961,16.732L30.961,16.732z"/>
	</g>
</g>
<g>
	<g>
		<path d="M30.966,17.196c0.215-0.253,0.299-0.669,0.021-0.907c-0.122-0.104-0.3,0.072-0.178,0.177
			c0.133,0.201,0.125,0.385-0.021,0.553C30.685,17.141,30.86,17.318,30.966,17.196L30.966,17.196z"/>
	</g>
</g>
<g>
	<g>
		<path d="M30.882,16.578c0.014,0.056,0.027,0.111,0.042,0.167c0.039,0.156,0.28,0.09,0.24-0.066
			c-0.014-0.056-0.027-0.111-0.042-0.167C31.083,16.355,30.842,16.421,30.882,16.578L30.882,16.578z"/>
	</g>
</g>
<g>
	<g>
		<path d="M30.944,16.598c0.007,0.049,0.014,0.097,0.021,0.146c0.023,0.159,0.264,0.091,0.24-0.066
			c-0.007-0.049-0.014-0.097-0.021-0.146C31.161,16.373,30.921,16.44,30.944,16.598L30.944,16.598z"/>
	</g>
</g>
<g>
	<g>
		<path d="M31.019,16.649c0.016,0.05,0.04,0.095,0.072,0.134c0.064,0.123,0.098,0.101,0.1-0.064c-0.161-0.002-0.161,0.248,0,0.25
			c0.029,0,0.059,0.001,0.088,0.001c0.057,0.001,0.104-0.039,0.12-0.092c0.042-0.132-0.112-0.249-0.163-0.355
			C31.165,16.378,30.949,16.504,31.019,16.649L31.019,16.649z"/>
	</g>
</g>
<g>
	<g>
		<path d="M30.995,17.173c0.426-0.1,0.266-0.268,0.211-0.62c-0.024-0.159-0.265-0.091-0.24,0.066
			c0.016,0.102,0.034,0.191,0.069,0.287c0.024,0.069,0.024-0.004-0.106,0.026C30.771,16.969,30.838,17.21,30.995,17.173
			L30.995,17.173z"/>
	</g>
</g>
<g>
	<g>
		<path d="M30.873,16.568c-0.323,0.347-0.755,0.508-1.224,0.526c-0.161,0.006-0.161,0.256,0,0.25
			c0.533-0.021,1.033-0.205,1.401-0.599C31.16,16.627,30.983,16.45,30.873,16.568L30.873,16.568z"/>
	</g>
</g>
<g>
	<g>
		<path d="M30.995,16.161c-0.312-0.125-0.625-0.25-0.938-0.375c-0.149-0.06-0.214,0.182-0.066,0.241
			c0.312,0.125,0.625,0.25,0.938,0.375C31.078,16.462,31.143,16.22,30.995,16.161L30.995,16.161z"/>
	</g>
</g>
</svg>
